<svg width="35" height="35" viewBox="0 0 35 35" fill="none" xmlns="http://www.w3.org/2000/svg">
<rect width="35" height="35" rx="10" fill="#3AA1FF"/>
<path d="M17.5 8.16675C18.7377 8.16675 19.9247 8.65841 20.7999 9.53358C21.675 10.4088 22.1667 11.5957 22.1667 12.8334C22.1667 14.0711 21.675 15.2581 20.7999 16.1332C19.9247 17.0084 18.7377 17.5001 17.5 17.5001C16.2623 17.5001 15.0754 17.0084 14.2002 16.1332C13.325 15.2581 12.8334 14.0711 12.8334 12.8334C12.8334 11.5957 13.325 10.4088 14.2002 9.53358C15.0754 8.65841 16.2623 8.16675 17.5 8.16675ZM17.5 19.8334C22.6567 19.8334 26.8334 21.9217 26.8334 24.5001V26.8334H8.16669V24.5001C8.16669 21.9217 12.3434 19.8334 17.5 19.8334Z" fill="white"/>
</svg>
